# xmcd
#
# Track frame offsets:
# 150
# 17060
# 35827
# 52720
# 75317
# 95170
# 116312
# 135527
# 154095
# 174582
#
# Disc length: 2640 seconds
#
#
# Revision: 0
# Processed by: cddbd v1.5.2PL0 Copyright (c) Steve Scherf et al.
# Submitted via: FreeRIP 2.945 
#
DISCID=720a4e0a
DTITLE=Dan Berglund - Såna som vi...
DYEAR=1900
DGENRE=
TTITLE0=Loser
TTITLE1=Såna som vi...
TTITLE2=Hymn
TTITLE3=Frasse Swahns frälsning
TTITLE4=Wellamo
TTITLE5=Hallucinationer
TTITLE6=Då klär hon av sig allt
TTITLE7=Brud vid min sida
TTITLE8=Partisanen
TTITLE9=Frasse Swahn i Albanien
EXTD=
EXTT0=
EXTT1=
EXTT2=
EXTT3=
EXTT4=
EXTT5=
EXTT6=
EXTT7=
EXTT8=
EXTT9=
PLAYORDER=
